<svg width="2256" height="542" viewBox="0 0 2256 542" fill="none" xmlns="http://www.w3.org/2000/svg">
<path d="M51.5155 108.561C44.4706 99.4471 40.9482 90.8694 40.9482 82.8279C40.9482 74.7863 42.9296 68.8892 46.8923 65.1365C50.855 60.8476 56.1387 56.8269 62.7432 53.0742C69.3478 49.3214 76.3926 45.8368 83.8778 42.6202C91.3629 38.8675 99.5085 35.6508 108.315 32.9703C117.121 29.7537 124.606 27.0732 130.77 24.9287C148.382 19.0316 159.61 16.0831 164.453 16.0831C169.297 16.0831 171.718 17.1553 171.718 19.2997C171.718 21.4441 170.177 24.1246 167.095 27.3412C164.013 30.5578 162.472 32.4342 162.472 32.9703C162.472 33.5064 163.132 33.7745 164.453 33.7745C166.214 33.7745 168.416 33.2384 171.058 32.1661C255.596 10.722 337.272 0 416.087 0C495.341 0 550.159 15.547 580.54 46.6409C581.42 47.7131 584.282 50.6617 589.126 55.4866C600.133 68.3531 605.637 75.5905 605.637 77.1988C605.637 82.0237 601.014 84.4362 591.767 84.4362C484.774 84.4362 396.053 88.993 325.604 98.1068C318.559 98.1068 315.037 99.4471 315.037 102.128C315.037 103.2 316.578 105.076 319.66 107.757C322.742 109.901 324.283 113.386 324.283 118.211C324.283 123.036 321.421 127.592 315.697 131.881L231.82 225.967C228.297 228.648 226.536 231.06 226.536 233.205C226.536 234.813 228.077 235.617 231.159 235.617L241.726 234.009C261.98 231.864 281.134 230.792 299.186 230.792C365.231 230.792 398.254 248.752 398.254 284.671C398.254 287.351 397.814 289.227 396.933 290.3C396.493 290.836 390.769 291.64 379.761 292.712C369.194 293.248 333.089 298.877 271.447 309.599C210.245 320.321 174.8 327.559 165.114 331.312C155.427 335.064 147.942 340.425 142.658 347.395C85.8591 437.996 53.9371 494.287 46.8923 516.267C46.452 516.267 45.5714 520.556 44.2505 529.134C43.3699 537.711 42.4893 542 41.6087 542C37.6459 542 29.7205 537.175 17.8323 527.525C5.94409 518.411 0 510.102 0 502.596C0 495.091 0.880606 487.854 2.64182 480.884C3.96273 473.915 5.94409 466.141 8.58591 457.564C10.7874 448.45 18.0524 431.295 30.3809 406.098C42.2691 380.365 57.2394 355.972 75.2918 332.92C76.1725 332.92 76.6128 332.116 76.6128 330.507C76.6128 328.363 73.9709 321.394 68.6873 309.599C63.4037 297.269 60.7618 290.032 60.7618 287.887C60.7618 277.165 63.844 270.464 70.0082 267.783C76.1725 264.567 94.445 259.742 124.826 253.309L133.412 251.7H134.072C137.595 251.7 144.419 245.535 154.546 233.205C222.793 159.223 262.861 118.479 274.749 110.973C279.152 108.293 281.354 106.148 281.354 104.54C281.354 102.932 280.033 102.128 277.391 102.128C274.749 102.128 272.548 102.396 270.786 102.932C195.935 115.798 133.192 122.231 82.5568 122.231C69.3478 122.231 59.0006 117.675 51.5155 108.561Z" fill="white"/>
<path d="M385.019 455.955C399.109 455.955 416.501 444.697 437.195 422.181C457.89 399.665 468.677 384.118 469.558 375.54C464.274 370.179 458.55 360.529 452.386 346.59C446.662 332.116 443.58 324.878 443.139 324.878C429.49 340.425 417.382 358.385 406.814 378.757C390.083 413.067 381.717 436.656 381.717 449.522C381.717 453.811 382.818 455.955 385.019 455.955ZM527.678 258.938C523.275 258.938 514.028 267.247 499.938 283.866C486.289 300.486 479.464 312.012 479.464 318.445C479.464 320.053 480.785 323.27 483.427 328.095C486.069 332.92 488.05 335.332 489.371 335.332C496.856 335.332 505.222 324.342 514.468 302.362C524.155 280.382 528.998 267.783 528.998 264.567C528.998 260.814 528.558 258.938 527.678 258.938ZM528.998 362.674C541.327 362.674 560.48 353.56 586.458 335.332C612.876 317.105 635.992 298.877 655.806 280.65L685.526 252.504C689.489 256.257 691.47 260.814 691.47 266.175C691.47 271.536 689.489 276.361 685.526 280.65C612.876 362.674 557.838 403.685 520.413 403.685C517.771 403.685 513.808 403.149 508.524 402.077C458.77 472.307 416.061 507.421 380.396 507.421C356.62 503.133 341.649 492.947 335.485 476.863C331.963 468.822 330.202 458.636 330.202 446.306C330.202 410.923 346.933 368.839 380.396 320.053C413.859 270.732 455.908 234.545 506.543 211.493C510.946 211.493 514.248 212.833 516.45 215.513C518.651 217.658 520.633 218.998 522.394 219.534C524.155 219.534 526.357 218.462 528.998 216.318C532.081 213.637 536.043 212.297 540.887 212.297C545.73 211.761 550.794 214.977 556.077 221.947C563.122 228.916 566.644 237.494 566.644 247.68C566.644 277.701 554.096 316.033 528.998 362.674Z" fill="white"/>
<path d="M582.717 340.961C606.934 320.59 632.251 298.609 658.669 275.021C644.58 263.226 635.554 251.7 631.591 240.442C630.27 236.689 629.609 234.009 629.609 232.401C629.609 221.679 632.471 214.709 638.195 211.493C643.919 207.74 653.166 205.863 665.934 205.863C670.778 205.863 685.088 213.101 708.864 227.576C732.64 242.05 747.611 249.288 753.775 249.288C760.38 249.288 769.406 247.143 780.854 242.855C792.301 238.03 801.328 235.617 807.932 235.617C814.977 235.617 820.041 237.494 823.123 241.246C834.13 258.938 839.634 269.66 839.634 273.412C839.634 277.165 838.093 280.382 835.011 283.062C832.369 285.207 823.343 292.712 807.932 305.579C792.962 318.445 778.212 331.58 763.682 344.982C749.152 358.385 735.502 373.396 722.734 390.015C709.965 406.634 703.58 420.037 703.58 430.223C703.58 431.831 704.681 432.635 706.883 432.635C730.659 432.635 810.794 373.932 947.288 256.525C950.37 256.525 951.911 260.01 951.911 266.979C951.911 273.412 934.519 296.465 899.736 336.136C864.952 375.272 825.544 413.871 781.514 451.935C737.924 489.462 706.222 508.226 686.409 508.226C655.587 508.226 640.177 489.462 640.177 451.935C640.177 431.563 645.681 411.995 656.688 393.231C668.136 373.932 691.912 348.199 728.017 316.033C720.532 316.033 710.405 313.888 697.636 309.599C684.867 304.774 676.722 299.145 673.199 292.712C661.752 305.043 641.938 325.682 613.759 354.632C607.154 360.529 598.568 363.478 588.001 363.478C577.434 363.478 572.15 361.601 572.15 357.849C572.15 353.56 575.672 347.931 582.717 340.961Z" fill="white"/>
<path d="M1037.14 248.484C1025.69 248.484 1006.31 262.958 979.016 291.908C951.717 320.321 938.068 337.745 938.068 344.178C938.068 345.25 938.728 345.786 940.049 345.786C949.736 345.786 968.889 332.652 997.509 306.383C1026.57 280.114 1041.1 262.154 1041.1 252.504C1041.1 249.824 1039.78 248.484 1037.14 248.484ZM896.459 505.813C862.556 505.813 845.604 480.616 845.604 430.223C845.604 398.592 856.832 365.086 879.287 329.703C902.183 293.784 929.041 264.567 959.863 242.05C990.684 218.998 1017.98 207.472 1041.76 207.472C1052.33 207.472 1062.01 212.565 1070.82 222.751C1080.07 232.937 1084.69 242.855 1084.69 252.504C1084.69 270.196 1074.34 290.3 1053.65 312.816C1032.95 334.796 1011.16 352.756 988.262 366.694C965.807 380.097 950.836 386.798 943.351 386.798C936.306 386.798 931.023 382.777 927.5 374.736C925.739 373.128 923.317 372.323 920.235 372.323C917.153 372.323 912.09 379.561 905.045 394.036C898 407.974 894.478 419.5 894.478 428.614C894.478 437.192 897.119 442.553 902.403 444.697C935.866 444.697 972.191 432.903 1011.38 409.315C1050.57 385.19 1104.72 343.106 1173.85 283.062C1178.69 278.773 1185.96 272.34 1195.65 263.763C1205.77 255.185 1211.72 250.092 1213.48 248.484C1217.44 252.236 1219.42 256.793 1219.42 262.154C1219.42 267.515 1217.44 272.34 1213.48 276.629C1191.46 303.434 1162.84 333.456 1127.62 366.694C1092.83 399.933 1052.77 431.563 1007.42 461.585C962.064 491.07 925.079 505.813 896.459 505.813Z" fill="white"/>
<path d="M1350.36 242.855C1349.92 262.154 1340.01 281.186 1320.64 299.95C1301.71 318.713 1278.59 328.095 1251.29 328.095C1239.85 328.095 1234.12 324.074 1234.12 316.033C1234.12 312.816 1236.1 310.404 1240.07 308.795C1266.48 290.032 1283.22 274.753 1290.26 262.958C1291.14 260.814 1291.58 258.402 1291.58 255.721C1291.58 253.041 1290.48 251.7 1288.28 251.7C1250.85 258.134 1215.19 283.062 1181.29 326.487C1147.38 369.911 1130.43 403.685 1130.43 427.81C1130.43 439.068 1133.95 444.697 1141 444.697C1173.58 444.697 1207.92 433.171 1244.03 410.119C1280.13 387.066 1333.85 344.714 1405.18 283.062C1410.02 278.773 1417.29 272.34 1426.97 263.763C1437.1 255.185 1443.05 250.092 1444.81 248.484C1448.77 252.236 1450.75 256.793 1450.75 262.154C1450.75 267.515 1448.77 272.34 1444.81 276.629C1422.79 303.434 1394.17 333.456 1358.95 366.694C1324.16 399.933 1284.1 431.563 1238.74 461.585C1193.39 491.07 1156.41 505.813 1127.79 505.813C1093.89 505.813 1076.93 483.833 1076.93 439.872C1076.93 409.315 1085.3 379.561 1102.03 350.611C1118.76 321.126 1139.24 296.465 1163.45 276.629C1187.67 256.793 1212.99 240.978 1239.41 229.184C1265.82 216.854 1286.96 210.688 1302.81 210.688C1319.1 210.688 1330.77 213.369 1337.81 218.73C1344.86 224.091 1348.6 229.452 1349.04 234.813L1350.36 242.855Z" fill="white"/>
<path d="M1436.91 457.564L1442.2 406.098C1442.2 404.49 1441.76 403.685 1440.87 403.685C1440.43 403.685 1439.33 404.758 1437.57 406.902C1431.85 414.407 1424.58 423.789 1415.78 435.047C1406.97 445.77 1391.78 460.512 1370.21 479.276C1349.07 497.503 1331.9 506.617 1318.69 506.617C1316.49 506.081 1313.85 505.009 1310.77 503.401C1307.24 502.328 1302.84 498.04 1297.56 490.534C1292.27 483.029 1289.63 472.307 1289.63 458.368C1289.63 444.429 1298.44 423.253 1316.05 394.84C1333.22 365.89 1353.92 337.745 1378.13 310.404C1402.35 282.526 1429.21 258.402 1458.71 238.03C1488.65 217.658 1514.63 207.472 1536.64 207.472C1545.01 208.008 1551.61 215.245 1556.45 229.184C1560.86 223.823 1564.82 221.142 1568.34 221.142C1571.87 221.142 1576.05 224.359 1580.89 230.792C1583.53 231.328 1586.17 233.205 1588.82 236.421C1591.46 239.102 1592.78 243.123 1592.78 248.484C1592.78 253.845 1589.7 259.742 1583.53 266.175C1574.29 280.114 1563.5 295.929 1551.17 313.62C1538.84 331.312 1530.04 344.178 1524.75 352.22C1519.47 359.725 1513.97 368.303 1508.24 377.953C1498.55 394.572 1493.27 407.974 1492.39 418.16C1537.3 391.891 1607.97 335.332 1704.4 248.484C1708.36 252.236 1710.34 256.793 1710.34 262.154C1710.34 267.515 1708.58 272.072 1705.06 275.825C1701.53 279.578 1697.13 284.135 1691.85 289.496C1687 294.857 1677.1 305.311 1662.13 320.858C1647.16 336.405 1632.63 351.415 1618.54 365.89C1604.89 379.829 1589.04 395.644 1570.98 413.335C1553.37 430.491 1537.52 445.233 1523.43 457.564C1489.53 487.049 1468.39 501.792 1460.03 501.792C1451.66 501.792 1445.72 498.576 1442.2 492.142C1438.67 485.709 1436.91 474.183 1436.91 457.564ZM1369.55 423.789C1374.83 423.789 1390.9 410.655 1417.76 384.386C1445.06 358.117 1470.82 331.848 1495.03 305.579L1532.02 266.175C1533.78 264.031 1534.66 262.69 1534.66 262.154C1534.66 261.082 1534 260.546 1532.68 260.546C1515.95 260.546 1494.15 272.34 1467.29 295.929C1440.43 318.981 1417.1 343.642 1397.28 369.911C1377.91 395.644 1368.23 413.067 1368.23 422.181C1368.23 423.253 1368.67 423.789 1369.55 423.789Z" fill="white"/>
<path d="M1657.86 432.635C1673.27 432.635 1687.36 421.377 1700.12 398.861C1713.33 375.808 1722.58 352.756 1727.86 329.703C1733.15 306.115 1735.79 287.351 1735.79 273.412C1735.79 269.66 1733.37 267.783 1728.52 267.783C1724.12 267.783 1718.84 270.732 1712.67 276.629L1626.15 357.849C1619.99 362.137 1612.94 364.282 1605.02 364.282C1597.09 364.282 1593.13 360.797 1593.13 353.828C1593.13 349.003 1593.57 345.786 1594.45 344.178C1595.77 342.57 1599.07 339.889 1604.36 336.136C1636.94 308.795 1681.41 264.299 1737.77 202.647C1744.37 191.925 1750.32 186.564 1755.6 186.564C1760.89 186.564 1769.69 188.708 1782.02 192.997C1794.35 196.75 1800.51 201.307 1800.51 206.668C1800.51 238.834 1798.09 268.051 1793.25 294.32C1788.4 320.59 1783.34 340.693 1778.06 354.632C1773.21 368.035 1770.79 375.272 1770.79 376.344C1770.79 377.416 1771.23 377.953 1772.11 377.953C1772.99 377.953 1774.76 377.148 1777.4 375.54C1810.42 355.168 1852.47 321.93 1903.54 275.825L1919.4 261.35C1923.36 265.103 1925.34 269.66 1925.34 275.021C1925.34 280.382 1923.36 285.207 1919.4 289.496C1918.51 289.496 1907.07 300.754 1885.05 323.27C1863.48 345.786 1839.26 370.447 1812.4 397.252C1785.98 423.521 1757.58 447.646 1727.2 469.626C1696.82 491.606 1673.27 502.596 1656.53 502.596C1615.15 502.596 1594.45 472.307 1594.45 411.727C1594.45 406.902 1595.99 402.613 1599.07 398.861C1602.6 394.572 1607 392.427 1612.28 392.427C1612.28 395.108 1613.38 399.397 1615.59 405.294C1618.23 410.655 1620.87 415.212 1623.51 418.964C1631.44 428.078 1642.88 432.635 1657.86 432.635Z" fill="white"/>
<path d="M2112.68 119.819L2146.36 119.015C2189.95 119.015 2221.66 126.52 2241.47 141.531C2251.16 145.284 2256 150.109 2256 156.006C2256 160.295 2251.6 163.243 2242.79 164.852C2234.43 166.46 2204.7 170.749 2153.63 177.718C2102.99 184.151 2068.21 187.904 2049.28 188.976C2040.91 189.512 2021.54 207.204 1991.16 242.05C1961.22 276.897 1932.6 315.228 1905.3 357.045C1878 398.861 1864.35 428.078 1864.35 444.697C1864.35 447.378 1865.45 449.79 1867.65 451.935C1869.85 453.543 1872.5 454.347 1875.58 454.347C1879.1 454.347 1884.38 452.739 1891.43 449.522C1975.09 389.479 2056.32 323.806 2135.14 252.504C2139.1 256.257 2141.08 260.814 2141.08 266.175C2141.08 271.536 2138.88 276.897 2134.48 282.258C2130.07 287.083 2123.47 294.32 2114.66 303.97C2106.3 313.62 2090.45 331.044 2067.11 356.24C2043.77 381.437 2021.76 403.954 2001.06 423.789C1945.59 478.472 1906.84 510.102 1884.82 518.68C1876.9 521.36 1867.43 522.7 1856.42 522.7C1845.86 522.7 1835.95 515.999 1826.7 502.596C1817.9 489.194 1813.5 470.966 1813.5 447.914C1813.5 424.862 1825.6 391.623 1849.82 348.199C1874.48 304.774 1907.94 260.278 1950.21 214.709C1954.17 210.956 1956.15 207.472 1956.15 204.255C1956.15 201.039 1951.53 199.43 1942.28 199.43L1900.68 201.039C1842.11 201.039 1811.95 192.997 1810.19 176.914C1796.54 173.697 1789.72 168.872 1789.72 162.439C1789.72 160.295 1790.6 159.223 1792.36 159.223C1794.12 158.686 1795.66 158.418 1796.98 158.418C1798.3 157.882 1800.51 157.346 1803.59 156.81C1806.67 156.274 1830.89 151.985 1876.24 143.944C1922.03 135.902 1973.99 129.201 2032.11 123.84L2077.68 49.8575C2080.32 43.4243 2089.57 40.2077 2105.42 40.2077C2121.27 40.2077 2129.19 44.2285 2129.19 52.27C2129.19 54.9505 2127.43 59.7755 2123.91 66.7448L2107.4 94.8902C2105.2 103.468 2103.88 109.901 2103.43 114.19C2103.43 117.943 2106.52 119.819 2112.68 119.819Z" fill="white"/>
</svg>
